<?xml version="1.0" encoding="utf-8"?>
<!-- Generator: Adobe Illustrator 22.1.0, SVG Export Plug-In . SVG Version: 6.00 Build 0)  -->
<svg version="1.1" id="Capa_1" xmlns="http://www.w3.org/2000/svg" xmlns:xlink="http://www.w3.org/1999/xlink" x="0px" y="0px"
	 viewBox="0 0 423.7 138.5" style="enable-background:new 0 0 423.7 138.5;" xml:space="preserve">
<style type="text/css">
	.st0{fill:#00417B;}
	.st1{fill:#009951;}
</style>
<path class="st0" d="M92.2,28.7H36v36.9c0,15.6,12.6,28.3,28.1,28.3s28.1-12.6,28.1-28.3V28.7z M34.9,27.7h58.4v38
	C93.3,81.8,80.2,95,64.1,95C48,95,34.9,81.8,34.9,65.6V27.7z"/>
<path class="st0" d="M70.2,84.2c-15.8,0-27.5-12.9-27.5-28.7v-4h27.5V84.2z"/>
<path class="st0" d="M46.3,100.7c0-1.4,1.3-1,1.3-1.3c0-0.1-0.1-0.2-0.3-0.2c-1,0-1.5,0.1-2.2,0.1c-0.5,0-1.1,0-1.6-0.1
	c-0.2,0-0.6-0.1-0.6,0.1c0,0.5,2.4,0.1,2.4,1.5v2.5c0,2.2-0.5,4.2-4.3,4.2c-3.4,0-4.2-1.6-4.2-3.6v-2.8c0-2.1,1.6-1.4,1.6-1.9
	c0-0.1,0-0.2-0.2-0.2c-0.4,0-1.7,0.1-2.7,0.1c-1,0-2.4-0.1-2.6-0.1c-0.2,0-0.4,0-0.4,0.2c0,0.5,2,0.1,2,1.2v4.2
	c0,2.5,1.9,3.6,5.5,3.6c5.3,0,6.4-2.2,6.4-4.8V100.7z"/>
<path class="st0" d="M55.6,106.6c0,1.5-2.2,0.9-2.2,1.4c0,0.3,0.3,0.3,0.7,0.3c0.8,0,1.4-0.1,2.7-0.1c1.3,0,1.9,0.1,2.7,0.1
	c0.6,0,0.9,0,0.9-0.3c0-0.4-2.4,0-2.4-1.6v-5.8c0-0.6,0.2-0.7,1-0.7h1.6c2.2,0,1.6,1.4,2.4,1.4c0.5,0,0.3-0.5,0.2-0.7L63,99.5
	c0-0.1,0-0.3-0.3-0.3c-1.8,0-3.1,0.1-5.8,0.1c-2.8,0-4.1-0.1-5.8-0.1c-0.3,0-0.3,0.2-0.3,0.3l-0.3,1.7c0,0.2-0.2,0.4,0.3,0.4
	c0.9,0,0.3-1.7,2.4-1.7h1.6c0.8,0,1,0.1,1,0.7V106.6z"/>
<path class="st0" d="M69.9,100.7c0-0.9,0.1-0.9,2.4-0.9c3.7,0,2.2,1.5,3.1,1.5c0.4,0,0.3-0.4,0.3-0.6l-0.1-1.3
	c0-0.1-0.1-0.2-0.4-0.2c-1.7,0-3,0.1-4.4,0.1c-2.9,0-4.3-0.1-5.1-0.1c-0.3,0-0.4,0.1-0.4,0.2c0,0.5,2.2,0.1,2.2,1.3v6
	c0,1.6-1.5,0.9-1.5,1.5c0,0.1,0.1,0.1,0.4,0.1c1.1,0,1.9-0.1,2.4-0.1c1,0,2.1,0.1,5,0.1c1.6,0,2.7-1,2.7-2c0-0.2-0.1-0.3-0.2-0.3
	c-0.7,0-0.5,1.7-5.2,1.7c-1.4,0-1.3-0.5-1.3-1.3v-1.6c0-0.7-0.1-0.9,0.8-0.9h1.4c2,0,1.5,1.4,2.1,1.4c0.5,0,0.3-0.5,0.3-0.6
	l-0.1-2.3c0-0.3-0.2-0.3-0.4-0.3c-0.4,0-0.4,1.2-2.1,1.2h-1.2c-0.8,0-0.8-0.1-0.8-0.6V100.7z"/>
<path class="st0" d="M81.8,102.5c0-0.1,0-0.3,0.1-0.3c0.1,0,0.2,0.1,0.2,0.2l3.7,5.5c0.1,0.1,0.2,0.4,0.5,0.4c0.3,0,0.4-0.2,0.5-0.4
	l3.6-5.1c0.3-0.4,0.5-0.7,0.6-0.7c0.1,0,0.1,0.2,0.2,0.6l0.3,3.9c0.1,1.4-1.4,1-1.4,1.4c0,0.2,0.5,0.2,0.9,0.2c0.4,0,0.9,0,2.1,0
	c0.6,0,1.1,0,1.6,0c0.7,0,0.9,0,0.9-0.2c0-0.5-1.8,0.1-1.9-1.6l-0.3-5.7c-0.1-1.5,1.8-1,1.8-1.4c0-0.1,0-0.2-0.6-0.2
	c-0.5,0-0.9,0.1-1.2,0.1c-0.3,0-0.6-0.1-1.1-0.1c-0.4,0-0.4,0.2-0.5,0.3l-4.4,6.2c0,0-0.2,0.3-0.3,0.3c-0.1,0-0.2-0.1-0.3-0.2
	l-4.2-6.2c-0.3-0.4-0.5-0.4-0.7-0.4c-0.6,0-1.3,0.1-1.8,0.1c-0.6,0-0.9-0.1-1.1-0.1c-0.1,0-0.2,0.1-0.2,0.2c0,0.6,2,0,1.9,2.1
	l-0.3,5.1c-0.1,1.3-1.6,1-1.6,1.5c0,0.1,0.1,0.2,0.4,0.2c0.3,0,1,0,1.9,0c0.9,0,1.3,0,2,0c0.5,0,0.5-0.2,0.5-0.2c0-0.5-2.1,0.2-2-2
	L81.8,102.5z"/>
<rect x="70.2" y="35.2" class="st1" width="16.1" height="16.2"/>
<rect x="112.4" y="28.4" class="st1" width="1.2" height="79.4"/>
<g>
	<path class="st0" d="M129.5,32.6c-0.3-0.8-0.7-0.9-1.5-0.9h-0.4v-2.6h1.3c2.1,0,2.7,0.4,3.4,2.4l7.2,19.7c0.5,1.5,1.1,3.8,1.1,3.8
		h0.1c0,0,0.6-2.3,1.1-3.8l7.2-19.7c0.8-2,1.4-2.4,3.5-2.4h1.2v2.6h-0.4c-0.8,0-1.2,0.1-1.5,0.9l-9.6,25.8h-3.1L129.5,32.6z"/>
	<path class="st0" d="M158.1,40.8c0-0.6-0.3-0.9-0.9-0.9h-1.7v-2.5h3c1.8,0,2.5,0.7,2.5,2.5v15c0,0.6,0.3,0.9,0.9,0.9h1.7v2.5h-3
		c-1.8,0-2.5-0.7-2.5-2.5V40.8z M158,29.1h2.7v3.6H158V29.1z"/>
	<path class="st0" d="M168.3,40.8c0-0.6-0.3-0.9-0.9-0.9h-1.7v-2.5h2.9c1.7,0,2.5,0.7,2.5,2.3v1c0,0.8-0.1,1.5-0.1,1.5h0.1
		c0.7-1.9,3.4-5.3,8.3-5.3c5.2,0,7,3,7,8.1V55c0,0.6,0.3,0.9,0.9,0.9h1.7v2.5h-3c-1.8,0-2.5-0.7-2.5-2.5v-10c0-3.3-0.5-6.2-4.5-6.2
		c-3.6,0-6.7,2.5-7.6,5.9c-0.3,0.9-0.3,1.8-0.3,2.8v10h-2.8V40.8z"/>
	<path class="st0" d="M202.7,36.9c2.4,0,7.4,1,7.4,4.5v1.9h-2.7V42c0-1.7-3-2.6-4.8-2.6c-4.5,0-8.1,3.4-8.1,8.4
		c0,5.2,3.8,8.4,8.2,8.4c4.3,0,6.7-3,6.7-3l1.3,2.1c0,0-2.8,3.4-8.2,3.4c-6.2,0-11-4.5-11-10.9C191.7,41.5,196.5,36.9,202.7,36.9z"
		/>
	<path class="st0" d="M215.5,40.8c0-0.6-0.3-0.9-0.9-0.9h-1.7v-2.5h3c1.8,0,2.5,0.7,2.5,2.5V50c0,3.3,0.5,6.2,4.6,6.2
		c4.7,0,7.7-4.2,7.7-8.7v-10h2.8V55c0,0.6,0.3,0.9,0.9,0.9h1.7v2.5h-2.9c-1.7,0-2.5-0.7-2.5-2.3v-1c0-0.8,0.1-1.5,0.1-1.5h-0.1
		c-0.8,2-3.6,5.3-8.2,5.3c-5,0-7-2.7-7-8.1V40.8z"/>
	<path class="st0" d="M240.7,32.5c0-0.6-0.3-0.9-0.9-0.9H238v-2.5h3c1.8,0,2.5,0.7,2.5,2.5V55c0,0.6,0.3,0.9,0.9,0.9h1.7v2.5h-3
		c-1.8,0-2.5-0.7-2.5-2.5V32.5z"/>
	<path class="st0" d="M261.8,45.5h1.2v-0.3c0-4.4-1.6-5.9-5.4-5.9c-1,0-4.1,0.3-4.1,1.8v1.3h-2.7v-2c0-2.9,5-3.5,6.8-3.5
		c6.6,0,8.2,3.5,8.2,8v10c0,0.6,0.3,0.9,0.9,0.9h1.7v2.5h-2.9c-1.8,0-2.5-0.8-2.5-2.5c0-0.9,0-1.5,0-1.5h-0.1c0,0-1.7,4.5-7,4.5
		c-3.5,0-7.1-2-7.1-6.2C249,45.7,258.2,45.5,261.8,45.5z M256.6,56.4c4,0,6.4-4.2,6.4-7.8v-1h-1.2c-3.3,0-9.9,0.1-9.9,4.8
		C251.9,54.5,253.4,56.4,256.6,56.4z"/>
	<path class="st0" d="M282.1,36.9c2.4,0,7.4,1,7.4,4.5v1.9h-2.7V42c0-1.7-3-2.6-4.8-2.6c-4.5,0-8.1,3.4-8.1,8.4
		c0,5.2,3.8,8.4,8.2,8.4c4.3,0,6.7-3,6.7-3l1.3,2.1c0,0-2.8,3.4-8.2,3.4c-6.2,0-11-4.5-11-10.9C271,41.5,275.8,36.9,282.1,36.9z"/>
	<path class="st0" d="M295.2,40.8c0-0.6-0.3-0.9-0.9-0.9h-1.7v-2.5h3c1.8,0,2.5,0.7,2.5,2.5v15c0,0.6,0.3,0.9,0.9,0.9h1.7v2.5h-3
		c-1.8,0-2.5-0.7-2.5-2.5V40.8z M295.1,29.1h2.7v3.6h-2.7V29.1z"/>
	<path class="st0" d="M314.5,36.9c6.1,0,11.1,4.7,11.1,10.9c0,6.3-5,11.1-11,11.1c-6.1,0-11.1-4.7-11.1-11.1
		C303.5,41.6,308.4,36.9,314.5,36.9z M314.5,56.3c4.5,0,8.1-3.7,8.1-8.5c0-4.7-3.7-8.3-8.1-8.3c-4.5,0-8.2,3.5-8.2,8.3
		C306.4,52.7,310,56.3,314.5,56.3z M316.2,29.1h3.2l-3.6,5h-2.5L316.2,29.1z"/>
	<path class="st0" d="M330.9,40.8c0-0.6-0.3-0.9-0.9-0.9h-1.7v-2.5h2.9c1.7,0,2.5,0.7,2.5,2.3v1c0,0.8-0.1,1.5-0.1,1.5h0.1
		c0.7-1.9,3.4-5.3,8.3-5.3c5.2,0,7,3,7,8.1V55c0,0.6,0.3,0.9,0.9,0.9h1.7v2.5h-3c-1.8,0-2.5-0.7-2.5-2.5v-10c0-3.3-0.5-6.2-4.5-6.2
		c-3.6,0-6.7,2.5-7.6,5.9c-0.3,0.9-0.3,1.8-0.3,2.8v10h-2.8V40.8z"/>
	<path class="st0" d="M143.4,78.1c3.5,0,11.4,1.4,11.4,7v3.9h-6.7v-1.6c0-1.7-2.7-2.4-4.6-2.4c-4.3,0-7.8,2.8-7.8,8.2
		c0,4.9,3.6,8.8,8,8.8c5.2,0,8.5-3.8,8.5-3.8l3.8,5.3c0,0-4.5,5.3-12.4,5.3c-9.4,0-15.6-6.7-15.6-15.7
		C128,84.6,134.6,78.1,143.4,78.1z"/>
	<path class="st0" d="M170.1,86.4c6.8,0,12.2,4.5,12.2,11.3c0,6.7-5.4,11.2-12.1,11.2s-12.1-4.5-12.1-11.2
		C158.1,90.9,163.4,86.4,170.1,86.4z M170.2,102.8c2.6,0,4.9-2,4.9-5.2c0-3.2-2.2-5.3-4.9-5.3c-2.6,0-4.9,2-4.9,5.3
		C165.3,100.9,167.6,102.8,170.2,102.8z"/>
	<path class="st0" d="M186.6,93.9c0-0.6-0.3-0.9-0.9-0.9h-1.6v-6h6.4c2,0,3,1,3,2.4v0.3c0,0.2,0,0.5,0,0.5h0.1c1-1.7,3-3.7,6.8-3.7
		c4.3,0,7.7,2,7.7,8v7c0,0.6,0.3,0.9,0.9,0.9h1.6v6h-6.7c-2.1,0-3-0.9-3-3v-9.5c0-2-0.8-2.8-2.4-2.8c-2.2,0-3.6,1.2-4.2,3.1
		c-0.3,0.8-0.4,1.8-0.4,2.8v9.5h-7.2V93.9z"/>
	<path class="st0" d="M234.3,86.4c6.3,0,9.9,4.4,9.9,10.4c0,0.7-0.2,2.2-0.2,2.2h-13.5c0.5,2.7,2.7,3.9,5,3.9c3.1,0,5.7-2.2,5.7-2.2
		l2.9,4.8c0,0-3.5,3.4-9.2,3.4c-7.7,0-11.8-5.5-11.8-11.2C223.2,91.3,227.4,86.4,234.3,86.4z M236.9,94.6c0-1.3-1-2.7-2.5-2.7
		c-2.1,0-3.1,1.2-3.6,2.7H236.9z"/>
	<path class="st0" d="M248.7,85.5c0-0.6-0.3-0.9-0.9-0.9h-1.6v-6h6.7c2.1,0,3,0.9,3,3v19.8c0,0.6,0.3,0.9,0.9,0.9h1.6v6h-6.7
		c-2.1,0-3-0.9-3-3V85.5z"/>
	<path class="st0" d="M270.8,102.1h1c0.6,0,0.9-0.3,0.9-0.9l1.8-22.6h7.8l4.7,11.7c0.7,1.9,1.5,4.3,1.5,4.3h0.1c0,0,0.7-2.4,1.5-4.3
		l4.7-11.7h7.8l1.8,22.6c0,0.6,0.3,0.9,0.9,0.9h1v6.2h-6.2c-2.1,0-2.9-0.9-3-3l-0.7-9.5c-0.2-2.2,0-5,0-5h-0.1c0,0-0.9,3.2-1.7,5
		l-3.3,7.8h-5.8l-3.3-7.8c-0.8-1.8-1.7-5-1.7-5h-0.1c0,0,0.2,2.7,0,5l-0.7,9.5c-0.2,2.1-0.9,3-3,3h-6.2V102.1z"/>
	<path class="st0" d="M319.4,86.4c6.3,0,9.9,4.4,9.9,10.4c0,0.7-0.2,2.2-0.2,2.2h-13.5c0.5,2.7,2.7,3.9,5,3.9c3.1,0,5.7-2.2,5.7-2.2
		l2.9,4.8c0,0-3.5,3.4-9.2,3.4c-7.7,0-11.8-5.5-11.8-11.2C308.2,91.3,312.5,86.4,319.4,86.4z M321.9,94.6c0-1.3-1-2.7-2.5-2.7
		c-2.1,0-3.1,1.2-3.6,2.7H321.9z"/>
	<path class="st0" d="M341.5,86.4c4.3,0,5.6,1.5,5.6,1.5h0.1c0,0,0-0.4,0-1v-1.4c0-0.6-0.3-0.9-0.9-0.9h-1.6v-6h6.7c2.1,0,3,0.9,3,3
		v19.8c0,0.6,0.3,0.9,0.9,0.9h1.6v6h-6.4c-2,0-2.8-1-2.8-2c0-0.2,0-0.4,0-0.4h-0.1c0,0-1.8,2.9-6.2,2.9c-5.8,0-9.7-4.6-9.7-11.2
		C331.7,90.8,335.8,86.4,341.5,86.4z M347.4,97.6c0-2.6-1.4-5.1-4.2-5.1c-2.2,0-4.2,1.8-4.2,5.1c0,3.2,1.7,5.3,4.2,5.3
		C345.3,102.9,347.4,101.3,347.4,97.6z"/>
	<path class="st0" d="M361.1,93.9c0-0.6-0.3-0.9-0.9-0.9h-1.6v-6h6.7c2.1,0,3,0.9,3,3v11.4c0,0.6,0.3,0.9,0.9,0.9h1.6v6h-6.7
		c-2.1,0-3-0.9-3-3V93.9z M361.7,78.6h6v5.8h-6V78.6z"/>
	<path class="st0" d="M384.8,86.4c6.8,0,12.2,4.5,12.2,11.3c0,6.7-5.4,11.2-12.1,11.2s-12.1-4.5-12.1-11.2
		C372.8,90.9,378.1,86.4,384.8,86.4z M384.9,102.8c2.6,0,4.9-2,4.9-5.2c0-3.2-2.2-5.3-4.9-5.3c-2.6,0-4.9,2-4.9,5.3
		C380,100.9,382.3,102.8,384.9,102.8z"/>
</g>
</svg>
